<svg width="36" height="46" viewBox="0 0 36 46" fill="none" xmlns="http://www.w3.org/2000/svg">
<g id="_Layer_" clip-path="url(#clip0_425_274)">
<path id="Vector" d="M17.97 1.5C8.89 1.5 1.5 8.89 1.5 17.97C1.5 27.05 17.14 43.47 17.81 44.17C17.85 44.21 17.91 44.24 17.97 44.24C18.03 44.24 18.09 44.22 18.13 44.17C18.8 43.47 34.44 26.94 34.44 17.97C34.44 9 27.06 1.5 17.97 1.5Z" fill="#F2ECB6"/>
<path id="Vector_2" d="M17.97 1.5C8.89 1.5 1.5 8.89 1.5 17.97C1.5 27.05 17.14 43.47 17.81 44.17C17.85 44.21 17.91 44.24 17.97 44.24C18.03 44.24 18.09 44.22 18.13 44.17C18.8 43.47 34.44 26.94 34.44 17.97C34.44 9 27.06 1.5 17.97 1.5Z" stroke="white" stroke-width="3" stroke-miterlimit="10"/>
</g>
<defs>
<clipPath id="clip0_425_274">
<rect width="35.95" height="45.74" fill="white"/>
</clipPath>
</defs>
</svg>
